<svg width="75" height="75" viewBox="0 0 75 75" fill="none" xmlns="http://www.w3.org/2000/svg">
<path d="M9.375 9.375H65.625V65.625H9.375V9.375ZM24.1562 56.375C25.4062 59.0313 27.875 61.2188 32.0938 61.2188C36.7813 61.2188 40 58.7188 40 53.25V35.1875H34.6875V53.125C34.6875 55.8125 33.5938 56.5 31.875 56.5C30.0625 56.5 29.3125 55.25 28.4687 53.7812L24.1562 56.375ZM42.8438 55.8125C44.4062 58.875 47.5625 61.2188 52.5 61.2188C57.5 61.2188 61.25 58.625 61.25 53.8438C61.25 49.4375 58.7188 47.4688 54.2188 45.5312L52.9062 44.9688C50.625 44 49.6562 43.3438 49.6562 41.7812C49.6562 40.5 50.625 39.5 52.1875 39.5C53.6875 39.5 54.6875 40.1562 55.5938 41.7812L59.6875 39.0625C57.9688 36.0625 55.5313 34.9062 52.1875 34.9062C47.4688 34.9062 44.4375 37.9062 44.4375 41.875C44.4375 46.1875 46.9688 48.2188 50.7812 49.8438L52.0938 50.4062C54.5312 51.4687 55.9688 52.125 55.9688 53.9375C55.9688 55.4375 54.5625 56.5312 52.375 56.5312C49.7812 56.5312 48.2812 55.1875 47.1562 53.3125L42.8438 55.8125Z" fill="#F7DF1E"/>
</svg>
