<svg width="77" height="75" viewBox="0 0 77 75" fill="none" xmlns="http://www.w3.org/2000/svg">
<g clip-path="url(#clip0_319_26396)">
<path d="M70.1357 57.8012C65.9935 57.6979 62.783 58.1122 60.0905 59.2512C59.3137 59.5616 58.0708 59.5619 57.9673 60.5458C58.3816 60.9601 58.4333 61.6333 58.7958 62.2027C59.4179 63.2381 60.5045 64.6363 61.4884 65.3616C62.5756 66.1899 63.6634 67.0181 64.8021 67.7431C66.8217 68.986 69.1003 69.7107 71.0679 70.9536C72.2074 71.678 73.3458 72.6107 74.4851 73.3872C75.0548 73.8009 75.417 74.4747 76.1423 74.7333V74.5782C75.7795 74.1119 75.6759 73.439 75.3137 72.9211C74.7964 72.4033 74.278 71.9372 73.7601 71.4193C72.2586 69.4003 70.3947 67.6396 68.3753 66.1899C66.7185 65.0506 63.0935 63.4973 62.4205 61.5812C62.4205 61.5812 62.3685 61.5297 62.317 61.478C63.456 61.3744 64.8021 60.9601 65.8899 60.6494C67.6503 60.183 69.2554 60.2869 71.0679 59.8208C71.8961 59.6137 72.7247 59.3547 73.553 59.0958V58.63C72.6214 57.6979 71.9482 56.4553 70.9643 55.575C68.3235 53.2961 65.4235 51.0699 62.4205 49.2059C60.8152 48.1702 58.7438 47.497 57.0351 46.6169C56.4143 46.3059 55.3783 46.1509 55.0161 45.633C54.0836 44.494 53.5658 42.9925 52.8929 41.6461C51.3917 38.7979 49.9414 35.6396 48.6467 32.6366C47.7152 30.6169 47.1455 28.5973 46.0063 26.7336C40.6729 17.9309 34.8735 12.5976 25.9676 7.36754C24.0515 6.28033 21.7732 5.81426 19.3396 5.24492C18.0455 5.19283 16.7506 5.08956 15.4563 5.03748C14.6277 4.67498 13.7991 3.69135 13.0741 3.22527C10.1232 1.36099 2.51102 -2.6774 0.33632 2.65593C-1.06189 6.0214 2.40775 9.3351 3.59822 11.0443C4.47918 12.2351 5.61787 13.5812 6.2393 14.9277C6.6018 15.8074 6.70507 16.7402 7.06757 17.672C7.89644 19.9497 8.67263 22.4875 9.76043 24.6107C10.3301 25.6979 10.9512 26.8369 11.6762 27.8208C12.0905 28.3902 12.8152 28.6494 12.9708 29.5812C12.2461 30.6169 12.1941 32.1705 11.7795 33.4649C9.91549 39.316 10.6408 46.5652 13.2813 50.8628C14.1095 52.1568 16.0774 55.0056 18.7182 53.9178C21.0485 52.986 20.5307 50.0345 21.2033 47.4455C21.3592 46.8235 21.2557 46.4098 21.5661 45.9955V46.0994C22.2911 47.5488 23.0158 48.9473 23.689 50.397C25.2944 52.9339 28.0902 55.575 30.4202 57.3357C31.6634 58.2672 32.647 59.8726 34.2006 60.4422V60.2866H34.0967C33.786 59.8205 33.32 59.6137 32.906 59.2509C31.9741 58.3193 30.9381 57.18 30.2134 56.1443C28.039 53.2443 26.1226 50.0342 24.414 46.7202C23.5857 45.1155 22.8604 43.3547 22.1875 41.7497C21.8765 41.1277 21.8765 40.1961 21.3589 39.8857C20.5822 41.0247 19.4432 42.0086 18.8735 43.4065C17.8902 45.633 17.7863 48.3774 17.4238 51.225C17.2167 51.2774 17.32 51.225 17.2164 51.3291C15.5598 50.9143 14.9902 49.2059 14.3685 47.7559C12.8149 44.0797 12.556 38.1768 13.9027 33.9309C14.2652 32.8434 15.8188 29.4262 15.1973 28.3905C14.8866 27.4065 13.8506 26.8369 13.2813 26.0604C12.6083 25.0765 11.883 23.8342 11.4173 22.7464C10.1744 19.8467 9.55299 16.6363 8.20686 13.7366C7.58543 12.3902 6.49852 10.9925 5.61787 9.74968C4.63424 8.35176 3.54674 7.36754 2.76995 5.71069C2.51132 5.14135 2.14852 4.2092 2.56281 3.58777C2.66638 3.17349 2.87322 3.01843 3.28781 2.91486C3.96102 2.34492 5.87709 3.06992 6.54971 3.38063C8.46578 4.15682 10.0708 4.88242 11.6762 5.96962C12.4009 6.48748 13.1777 7.4714 14.1095 7.73033H15.197C16.8542 8.09254 18.7179 7.8339 20.2714 8.29968C23.0161 9.17974 25.5012 10.4744 27.728 11.8726C34.5113 16.1702 40.103 22.2803 43.8833 29.5812C44.5048 30.7717 44.7634 31.8598 45.333 33.1021C46.4208 35.6396 47.767 38.2285 48.8539 40.714C49.9414 43.1473 50.9768 45.633 52.5304 47.6527C53.3072 48.7396 56.4137 49.3095 57.8119 49.8791C58.8476 50.3449 60.453 50.7595 61.3848 51.3288C63.1452 52.4157 64.9057 53.6592 66.5628 54.8497C67.3914 55.4711 69.9801 56.7658 70.1357 57.8012Z" fill="#00758F"/>
<path d="M17.3196 12.8047C16.4396 12.8047 15.8185 12.9089 15.197 13.0639V13.1675H15.3006C15.7152 13.9961 16.4396 14.5657 16.9571 15.2904C17.3717 16.1187 17.7339 16.9475 18.1485 17.7761C18.2 17.724 18.2518 17.6725 18.2518 17.6725C18.9771 17.1544 19.3393 16.3261 19.3393 15.0833C19.0286 14.7211 18.9768 14.3586 18.7179 13.9961C18.4074 13.4779 17.7339 13.2193 17.3196 12.8047Z" fill="#00758F"/>
</g>
<defs>
<clipPath id="clip0_319_26396">
<rect width="76.1953" height="75" fill="white"/>
</clipPath>
</defs>
</svg>
